{
  "accessors": [
    {
      "bufferView": 2,
      "componentType": 5126,
      "count": 16385,
      "max": [
        1.9580329656600952,
        1.3812669515609741,
        4.439564228057861
      ],
      "min": [
        -1.6460230350494385,
        -1.8896909952163696,
        -0.1100429967045784
      ],
      "type": "VEC3"
    },
    {
      "bufferView": 2,
      "byteOffset": 196620,
      "componentType": 5126,
      "count": 16385,
      "max": [
        0.9978222250938416,
        0.999725878238678,
        0.9998287558555603
      ],
      "min": [
        -0.9990026354789734,
        -0.9987882971763611,
        -0.9999724626541138
      ],
      "type": "VEC3"
    },
    {
      "bufferView": 1,
      "componentType": 5126,
      "count": 16385,
      "max": [
        0.0,
        0.0
      ],
      "min": [
        0.0,
        0.0
      ],
      "type": "VEC2"
    },
    {
      "bufferView": 0,
      "componentType": 5125,
      "count": 88320,
      "type": "SCALAR"
    },
    {
      "bufferView": 2,
      "byteOffset": 393240,
      "componentType": 5126,
      "count": 1792,
      "max": [
        1.679919958114624,
        1.2270710468292236,
        3.8152549266815186
      ],
      "min": [
        -1.414891004562378,
        -1.7283600568771362,
        0.9352139830589294
      ],
      "type": "VEC3"
    },
    {
      "bufferView": 2,
      "byteOffset": 414744,
      "componentType": 5126,
      "count": 1792,
      "max": [
        0.9527884125709534,
        0.9814520478248596,
        0.9273408651351929
      ],
      "min": [
        -0.9527884125709534,
        -0.9814520478248596,
        -0.9273408651351929
      ],
      "type": "VEC3"
    },
    {
      "bufferView": 1,
      "byteOffset": 131080,
      "componentType": 5126,
      "count": 1792,
      "max": [
        0.0,
        0.0
      ],
      "min": [
        0.0,
        0.0
      ],
      "type": "VEC2"
    },
    {
      "bufferView": 0,
      "byteOffset": 353280,
      "componentType": 5125,
      "count": 7680,
      "type": "SCALAR"
    },
    {
      "bufferView": 2,
      "byteOffset": 436248,
      "componentType": 5126,
      "count": 31744,
      "max": [
        0.4862399995326996,
        1.0717710256576538,
        2.26711106300354
      ],
      "min": [
        0.22640499472618103,
        0.9022759795188904,
        1.8921610116958618
      ],
      "type": "VEC3"
    },
    {
      "bufferView": 2,
      "byteOffset": 817176,
      "componentType": 5126,
      "count": 31744,
      "max": [
        0.9998588562011719,
        0.9998688697814941,
        0.9998505711555481
      ],
      "min": [
        -0.9998588562011719,
        -0.9999963045120239,
        -0.9998505711555481
      ],
      "type": "VEC3"
    },
    {
      "bufferView": 1,
      "byteOffset": 145416,
      "componentType": 5126,
      "count": 31744,
      "max": [
        1.0,
        1.0
      ],
      "min": [
        0.0,
        0.0
      ],
      "type": "VEC2"
    },
    {
      "bufferView": 0,
      "byteOffset": 384000,
      "componentType": 5125,
      "count": 47616,
      "type": "SCALAR"
    },
    {
      "bufferView": 2,
      "byteOffset": 1198104,
      "componentType": 5126,
      "count": 31745,
      "max": [
        0.2775439918041229,
        1.037253975868225,
        2.055596113204956
      ],
      "min": [
        0.008280999958515167,
        0.8865389823913574,
        1.7589759826660156
      ],
      "type": "VEC3"
    },
    {
      "bufferView": 2,
      "byteOffset": 1579044,
      "componentType": 5126,
      "count": 31745,
      "max": [
        0.9997095465660095,
        0.999923825263977,
        0.9999394416809082
      ],
      "min": [
        -0.9997072815895081,
        -0.9998573064804077,
        -0.9999394416809082
      ],
      "type": "VEC3"
    },
    {
      "bufferView": 1,
      "byteOffset": 399368,
      "componentType": 5126,
      "count": 31745,
      "max": [
        1.0,
        1.0
      ],
      "min": [
        0.0,
        0.0
      ],
      "type": "VEC2"
    },
    {
      "bufferView": 0,
      "byteOffset": 574464,
      "componentType": 5125,
      "count": 47616,
      "type": "SCALAR"
    },
    {
      "bufferView": 2,
      "byteOffset": 1959984,
      "componentType": 5126,
      "count": 810,
      "max": [
        0.64718097448349,
        1.1063270568847656,
        2.4038619995117188
      ],
      "min": [
        -0.12338099628686905,
        0.7701820135116577,
        1.6418360471725464
      ],
      "type": "VEC3"
    },
    {
      "bufferView": 2,
      "byteOffset": 1969704,
      "componentType": 5126,
      "count": 810,
      "max": [
        0.9974687099456787,
        0.9632667899131775,
        0.96572345495224
      ],
      "min": [
        -0.9974687099456787,
        -0.9636780619621277,
        -0.96572345495224
      ],
      "type": "VEC3"
    },
    {
      "bufferView": 1,
      "byteOffset": 653328,
      "componentType": 5126,
      "count": 810,
      "max": [
        0.0,
        0.0
      ],
      "min": [
        0.0,
        0.0
      ],
      "type": "VEC2"
    },
    {
      "bufferView": 0,
      "byteOffset": 764928,
      "componentType": 5125,
      "count": 2424,
      "type": "SCALAR"
    },
    {
      "bufferView": 2,
      "byteOffset": 1979424,
      "componentType": 5126,
      "count": 90,
      "max": [
        0.5796880125999451,
        1.038004994392395,
        2.3341500759124756
      ],
      "min": [
        -0.057461999356746674,
        0.8665059804916382,
        1.7172839641571045
      ],
      "type": "VEC3"
    },
    {
      "bufferView": 2,
      "byteOffset": 1980504,
      "componentType": 5126,
      "count": 90,
      "max": [
        0.07099755853414536,
        0.9632667899131775,
        -0.2589910924434662
      ],
      "min": [
        0.07099755853414536,
        0.9632667899131775,
        -0.2589910924434662
      ],
      "type": "VEC3"
    },
    {
      "bufferView": 1,
      "byteOffset": 659808,
      "componentType": 5126,
      "count": 90,
      "max": [
        0.0,
        0.0
      ],
      "min": [
        0.0,
        0.0
      ],
      "type": "VEC2"
    },
    {
      "bufferView": 0,
      "byteOffset": 774624,
      "componentType": 5125,
      "count": 264,
      "type": "SCALAR"
    },
    {
      "bufferView": 2,
      "byteOffset": 1981584,
      "componentType": 5126,
      "count": 25545,
      "max": [
        0.8592050075531006,
        1.5366699695587158,
        6.340227127075195
      ],
      "min": [
        -1.7736179828643799,
        -0.9499059915542603,
        4.611045837402344
      ],
      "type": "VEC3"
    },
    {
      "bufferView": 2,
      "byteOffset": 2288124,
      "componentType": 5126,
      "count": 25545,
      "max": [
        0.9999802112579346,
        0.999696671962738,
        0.9971916675567627
      ],
      "min": [
        -0.9999802112579346,
        -0.9998890161514282,
        -0.9997163414955139
      ],
      "type": "VEC3"
    },
    {
      "bufferView": 1,
      "byteOffset": 660528,
      "componentType": 5126,
      "count": 25545,
      "max": [
        0.0,
        0.0
      ],
      "min": [
        0.0,
        0.0
      ],
      "type": "VEC2"
    },
    {
      "bufferView": 0,
      "byteOffset": 775680,
      "componentType": 5125,
      "count": 132624,
      "type": "SCALAR"
    },
    {
      "bufferView": 2,
      "byteOffset": 2594664,
      "componentType": 5126,
      "count": 25098,
      "max": [
        1.7715729475021362,
        1.2533260583877563,
        4.426627159118652
      ],
      "min": [
        -2.241666078567505,
        -1.759572982788086,
        0.5036709904670715
      ],
      "type": "VEC3"
    },
    {
      "bufferView": 2,
      "byteOffset": 2895840,
      "componentType": 5126,
      "count": 25098,
      "max": [
        0.9996741414070129,
        0.9999126195907593,
        0.9999990463256836
      ],
      "min": [
        -0.9999589920043945,
        -0.9989653825759888,
        -0.9999920129776001
      ],
      "type": "VEC3"
    },
    {
      "bufferView": 1,
      "byteOffset": 864888,
      "componentType": 5126,
      "count": 25098,
      "max": [
        0.0,
        0.0
      ],
      "min": [
        0.0,
        0.0
      ],
      "type": "VEC2"
    },
    {
      "bufferView": 0,
      "byteOffset": 1306176,
      "componentType": 5125,
      "count": 145920,
      "type": "SCALAR"
    }
  ],
  "asset": {
    "extras": {
      "author": "Criistinaa (https://sketchfab.com/Criistinaa)",
      "license": "CC-BY-4.0 (http://creativecommons.org/licenses/by/4.0/)",
      "source": "https://sketchfab.com/3d-models/coffee-cup-90a82eb66f984562a7825a431f4f1de2",
      "title": "Coffee cup."
    },
    "generator": "Sketchfab-16.59.0",
    "version": "2.0"
  },
  "bufferViews": [
    {
      "buffer": 0,
      "byteLength": 1889856,
      "name": "floatBufferViews",
      "target": 34963
    },
    {
      "buffer": 0,
      "byteLength": 1065672,
      "byteOffset": 1889856,
      "byteStride": 8,
      "name": "floatBufferViews",
      "target": 34962
    },
    {
      "buffer": 0,
      "byteLength": 3197016,
      "byteOffset": 2955528,
      "byteStride": 12,
      "name": "floatBufferViews",
      "target": 34962
    }
  ],
  "buffers": [
    {
      "byteLength": 6152544,
      "uri": "scene.bin"
    }
  ],
  "materials": [
    {
      "doubleSided": true,
      "name": "Materiale",
      "pbrMetallicRoughness": {
        "baseColorFactor": [
          0.8,
          0.573703,
          0.411693,
          1.0
        ],
        "metallicFactor": 0.0,
        "roughnessFactor": 0.2
      }
    },
    {
      "doubleSided": true,
      "name": "Materiale.001",
      "pbrMetallicRoughness": {
        "baseColorFactor": [
          0.2529429999999998,
          0.08486399999999993,
          0.02957600000000002,
          1.0
        ],
        "metallicFactor": 0.0,
        "roughnessFactor": 0.2
      }
    },
    {
      "doubleSided": true,
      "name": "Materiale.002",
      "pbrMetallicRoughness": {
        "baseColorFactor": [
          0.044000000000000004,
          0.014492999999999992,
          0.0029040000000000003,
          1.0
        ],
        "metallicFactor": 0.0,
        "roughnessFactor": 0.2
      }
    },
    {
      "doubleSided": true,
      "name": "Materiale.003",
      "pbrMetallicRoughness": {
        "baseColorFactor": [
          0.044455,
          0.014688,
          0.002933,
          1.0
        ],
        "metallicFactor": 0.0,
        "roughnessFactor": 0.2
      }
    },
    {
      "doubleSided": true,
      "name": "Materiale.004",
      "pbrMetallicRoughness": {
        "baseColorFactor": [
          0.7999999999999999,
          0.4613719999999998,
          0.14233300000000002,
          1.0
        ],
        "metallicFactor": 0.0,
        "roughnessFactor": 0.2
      }
    },
    {
      "doubleSided": true,
      "name": "Materiale.005",
      "pbrMetallicRoughness": {
        "baseColorFactor": [
          0.5704699999999999,
          0.20505300000000004,
          0.0032960000000000016,
          1.0
        ],
        "metallicFactor": 0.0,
        "roughnessFactor": 0.3
      }
    },
    {
      "doubleSided": true,
      "name": "Materiale.006",
      "pbrMetallicRoughness": {
        "baseColorFactor": [
          0.0,
          0.0,
          0.0,
          1.0
        ],
        "metallicFactor": 0.0,
        "roughnessFactor": 0.2
      }
    },
    {
      "doubleSided": true,
      "name": "Materiale.007",
      "pbrMetallicRoughness": {
        "baseColorFactor": [
          0.025393999999999996,
          0.009310999999999998,
          0.001999,
          1.0
        ],
        "metallicFactor": 0.0,
        "roughnessFactor": 0.1
      }
    }
  ],
  "meshes": [
    {
      "name": "Object_0",
      "primitives": [
        {
          "attributes": {
            "NORMAL": 1,
            "POSITION": 0,
            "TEXCOORD_0": 2
          },
          "indices": 3,
          "material": 0,
          "mode": 4
        }
      ]
    },
    {
      "name": "Object_1",
      "primitives": [
        {
          "attributes": {
            "NORMAL": 5,
            "POSITION": 4,
            "TEXCOORD_0": 6
          },
          "indices": 7,
          "material": 1,
          "mode": 4
        }
      ]
    },
    {
      "name": "Object_2",
      "primitives": [
        {
          "attributes": {
            "NORMAL": 9,
            "POSITION": 8,
            "TEXCOORD_0": 10
          },
          "indices": 11,
          "material": 2,
          "mode": 4
        }
      ]
    },
    {
      "name": "Object_3",
      "primitives": [
        {
          "attributes": {
            "NORMAL": 13,
            "POSITION": 12,
            "TEXCOORD_0": 14
          },
          "indices": 15,
          "material": 3,
          "mode": 4
        }
      ]
    },
    {
      "name": "Object_4",
      "primitives": [
        {
          "attributes": {
            "NORMAL": 17,
            "POSITION": 16,
            "TEXCOORD_0": 18
          },
          "indices": 19,
          "material": 4,
          "mode": 4
        }
      ]
    },
    {
      "name": "Object_5",
      "primitives": [
        {
          "attributes": {
            "NORMAL": 21,
            "POSITION": 20,
            "TEXCOORD_0": 22
          },
          "indices": 23,
          "material": 5,
          "mode": 4
        }
      ]
    },
    {
      "name": "Object_6",
      "primitives": [
        {
          "attributes": {
            "NORMAL": 25,
            "POSITION": 24,
            "TEXCOORD_0": 26
          },
          "indices": 27,
          "material": 6,
          "mode": 4
        }
      ]
    },
    {
      "name": "Object_7",
      "primitives": [
        {
          "attributes": {
            "NORMAL": 29,
            "POSITION": 28,
            "TEXCOORD_0": 30
          },
          "indices": 31,
          "material": 7,
          "mode": 4
        }
      ]
    }
  ],
  "nodes": [
    {
      "children": [
        1
      ],
      "matrix": [
        1.0,
        0.0,
        0.0,
        0.0,
        0.0,
        2.220446049250313e-16,
        -1.0,
        0.0,
        0.0,
        1.0,
        2.220446049250313e-16,
        0.0,
        0.0,
        0.0,
        0.0,
        1.0
      ],
      "name": "Sketchfab_model"
    },
    {
      "children": [
        2,
        3,
        4,
        5,
        6,
        7,
        8,
        9
      ],
      "name": "CoffeeCup.obj.cleaner.materialmerger.gles"
    },
    {
      "mesh": 0,
      "name": "Object_2"
    },
    {
      "mesh": 1,
      "name": "Object_3"
    },
    {
      "mesh": 2,
      "name": "Object_4"
    },
    {
      "mesh": 3,
      "name": "Object_5"
    },
    {
      "mesh": 4,
      "name": "Object_6"
    },
    {
      "mesh": 5,
      "name": "Object_7"
    },
    {
      "mesh": 6,
      "name": "Object_8"
    },
    {
      "mesh": 7,
      "name": "Object_9"
    }
  ],
  "scene": 0,
  "scenes": [
    {
      "name": "Sketchfab_Scene",
      "nodes": [
        0
      ]
    }
  ]
}
